<?xml version="1.0" encoding="utf-8"?>
<!-- Generator: Adobe Illustrator 27.2.0, SVG Export Plug-In . SVG Version: 6.00 Build 0)  -->
<svg version="1.1" id="Layer_1" xmlns="http://www.w3.org/2000/svg" xmlns:xlink="http://www.w3.org/1999/xlink" x="0px" y="0px"
	 viewBox="0 0 512 512" style="enable-background:new 0 0 512 512;" xml:space="preserve">
<style type="text/css">
	.st0{fill:#FFFFFF;}
</style>
<g>
	<path class="st0" d="M245,49.9c-13.9-2.5-27.9-4.8-41.7-7.5c-27.3-5.4-54.5-11.3-81.9-16.7C97.9,21,74.2,17.2,50.8,12.1
		C26.4,6.9,2.3,26.2,1.1,48.4c0.1,3,0.2,6,0.2,8.9c0,94.1,0,188.3,0,282.4c0,1.4-0.1,2.8-0.2,4.2c0.4,16.7,15.4,32,30.8,35.9
		c18.3,4.6,37,7.6,55.5,11.4c19.2,3.9,38.4,7.4,57.6,11.2c19.3,3.9,38.5,8.3,57.9,11.7c14.1,2.4,27.9,6.6,42.3,7.4
		c0-122.3,0-244.6,0-366.8C245.2,53.1,245.1,51.5,245,49.9z M193,215.2c-1.8,9.2-1.9,18.7-2.8,28.1c-1.1,10.7-2,21.5-3.3,32.2
		c-1.2,9.7-1.2,19.4-3.7,29c-2.9,10.7-14.7,19.7-26.2,20.2c-12,0.5-23-3.8-34.3-6.1c-15.3-3.2-30.5-6.8-45.6-10.8
		c-14.4-3.8-22.9-15.4-24.3-30.5c-1.2-13.2-2.5-26.5-4.6-39.6c-1.4-8.5-1.7-17.1-2.5-25.7c-0.8-8.2-2.1-16.3-2.4-24.6
		c-0.5-15.1,12.7-29.7,28.3-30.1c3.4-0.1,4.2-2,4.9-4.2c5.7-17.2,17.1-28.2,34.8-32.3c1.5-0.4,3.1-0.5,4.7-0.6c1.4-0.1,2.8,0,4.2,0
		c23.6-0.1,41.4,14.6,46.1,37.3c1.2,5.7,1,11.8,1.3,17.6c0.1,2.5,0.1,4.2,3.5,4.9C184.8,182.9,196.5,198.1,193,215.2z"/>
	<path class="st0" d="M510.7,50.7c0-0.8,0.1-1.6,0.2-2.4c-0.6-2.6-1-5.3-1.8-7.9c-4.9-16.9-21.1-28.7-39.4-29.2
		c-10.9-0.3-21.2,2.8-31.7,4.8c-23,4.4-46,8.8-69,13.3c-18.5,3.6-37,7.2-55.5,10.8c-15.6,3.1-31.3,5.4-46.7,9.5
		c0,76-0.1,152-0.1,228c0,1.3-0.6,2.8,1,3.8c10.7-16.1,24.5-28.8,41.1-38.6c25.4-15,52.9-20.4,81.9-16.1
		c13.9,2.1,27.5,5.9,40.1,12.7c42.4,22.5,65.5,57.6,69.1,105.5c1.9,5.7,1.7,11.3,0,17c0,1.1-0.6,2.6,0.6,3.3
		c1.5,0.8,2.5-0.4,3.3-1.5c4.2-5.5,5.6-12,6.9-18.5c-0.1-3.2-0.2-6.4-0.2-9.5C510.7,240.6,510.7,145.7,510.7,50.7z M464.9,159.2
		c-0.4,15.4-7.7,25.3-25,29.2c-24.8,5.6-49.4,11.7-74.2,16.9c-11.7,2.4-23.2,6.2-35.3,7c-11.8,0.8-27.9-13.2-28-26.2
		c-1.2-1.3-0.9-3-0.9-4.5c0-22.6,0-45.2,0-67.9c0-1.6-0.2-3.2,1-4.5c1-11.3,10.2-22.1,22-24.9c23.6-5.7,47.3-11.3,71.1-16.6
		c13.8-3.1,27.3-8,41.8-7.5c13,0.5,25.3,10.8,26.7,23.9C466.8,109.2,465.6,134.3,464.9,159.2z"/>
	<path class="st0" d="M461,421.9c-2.4-2.4-2.8-3.8-0.7-6.7c11.8-16.2,18.2-34.5,19.4-54.5c0-5.2,0-10.5,0-15.7
		c0.2-8.5-1.9-16.7-4.5-24.6c-14.6-44.8-52.6-71.7-98-74.4c-15.5-0.9-30.5,1.7-44.7,8.1c-39.3,17.7-61.9,47.6-66,91c0,0,0,0,0,0
		c0,5.2,0,10.5,0,15.7c0.4,12.2,3.5,23.8,8.5,34.9c8.8,19.4,21.7,35.3,39.7,46.9c21.9,14.2,45.6,20.3,71.9,16.3
		c12.4-1.9,24.5-4.7,35.5-10.6c3.7-2,6-1.6,8.7,1.2c14.7,14.9,29.7,29.4,44.2,44.5c6,6.3,13,8.1,20.8,6.3
		c8.1-1.9,13.2-7.5,14.6-15.8c1.5-8.3-1.8-14.9-7.6-20.6C488.9,449.8,475.1,435.7,461,421.9z M439.1,360.6
		c-3.5,23.7-15.5,41.7-37.2,51.9c-35.2,16.6-72.4,1.3-88.6-31.3c-4.7-9.4-7.5-19.5-7-29.8c1.2-24.1,15.3-49.9,43.6-60.6
		c4.8-1.8,9.5-3.2,14.6-3.4c5.7-1.9,11.4-1.6,17.2-0.1c30,4.2,51.2,25.4,56.1,52.5c0.3,1.7,0.8,3.4,1.2,5.1
		C440.9,350.1,440.9,355.4,439.1,360.6z"/>
	<path class="st0" d="M245,49.9c1.6,1.7,0.8,3.8,0.8,5.7c0,120,0,240,0,360c0,1.9,0.5,4-0.6,5.8c2.2-1.1,1.2-3.2,1.2-4.8
		c0.1-120.5,0.1-241,0-361.5C246.4,53.4,247.5,51.1,245,49.9z"/>
	<path class="st0" d="M511.9,55.3c0-2.3,0.5-4.8-1-7c0.7,1.9,0.4,3.9,0.4,5.9c0,95,0,189.9,0,284.9c0,2,0.4,4-0.4,5.9
		c1.6-2.1,1-4.6,1-6.9C511.9,243.8,511.9,149.6,511.9,55.3z"/>
	<path class="st0" d="M0.7,338.5c0-95,0-189.9,0-284.9c0-1.8-0.3-3.6,0.4-5.3c-1.5,2.1-1,4.6-1,7c0,94.1,0,188.1,0,282.2
		c0,2.1-0.6,4.4,0.9,6.3C0.4,342.1,0.7,340.3,0.7,338.5z"/>
	<path class="st0" d="M266.3,275.4c-0.1-47.6-0.1-95.2-0.1-142.8c0-25.5,0-51,0-76.5c0-2.1-0.6-4.4,0.6-6.4
		c-2.5,1.8-1.2,4.4-1.2,6.5c-0.1,73.4-0.1,146.9-0.1,220.3c0,1.8-0.3,3.7,0.3,5.3c0.4,1.3,1.5,0.7,2-0.4
		C264.5,280.2,266.3,277.3,266.3,275.4z"/>
	<path class="st0" d="M500.1,344.9c0,5.7,0,11.3,0,17C500.9,356.2,500.9,350.5,500.1,344.9z"/>
	<path class="st0" d="M266.6,344.9C266.6,344.9,266.6,344.9,266.6,344.9c-1.7,5.2-1.7,10.5,0,15.7C266,355.4,266,350.1,266.6,344.9z
		"/>
	<path class="st0" d="M479.7,360.6c1.9-5.3,1.8-10.5,0-15.7C480.5,350.1,480.5,355.4,479.7,360.6z"/>
	<path class="st0" d="M302.1,115.7c0.2,23.5-0.5,46.9,0.3,70.4c0-25.6,0-51.3,0-76.9C301.8,111.4,302.1,113.6,302.1,115.7z"/>
	<path class="st0" d="M364.7,287.4c5.7,0,11.4-0.1,17.2-0.1C376.1,286.9,370.4,286.7,364.7,287.4z"/>
	<path class="st0" d="M439.1,344.9c0,5.2,0,10.5,0,15.7C439.8,355.4,439.8,350.1,439.1,344.9z"/>
	<path class="st0" d="M169.7,201.4c-0.4,0.7-0.8,1.2-1,1.6c-2.3,5.1-6.1,8-11.7,6.7c-5.6-1.3-8.8-5.3-8.6-11.2
		c0.1-3.4-2.3-3.8-4.4-4.3c-14.7-3.6-29.5-7.2-44.3-10.7c-6.7-1.6-7.3-1.1-7.5,5.9c-0.2,4.8-2.5,7.9-6.8,9.3
		c-4.4,1.4-8.2,0-11.1-3.7c-2.9-3.7-3.5-7.7-1.6-12.2c0.6-1.5,1.3-4-0.2-5c-1.9-1.2-3.6,0.8-5.1,2c-4.9,4-4.7,9.6-3.7,14.8
		c3,15.6,3.8,31.4,5.7,47.1c1.4,11.7,3.1,23.3,3.9,35c0.4,5.9,4,10.4,10.5,11.9c21.8,5.1,43.6,10.3,65.4,15.4
		c8.8,2.1,15-1.6,15.8-10.1c0.5-5.5,0.8-10.9,1.4-16.4c1-9.2,1.9-18.4,2.6-27.6c1.1-13.5,3.1-26.9,4.5-40.3
		C173.7,206.6,172.5,203.7,169.7,201.4z"/>
	<path class="st0" d="M99.1,162.2c12.4,2.9,24.6,6.4,37,9.2c3.4,0.8,7.1,3,11.1,0.7c-2.6-4.3-0.4-9.1-1.8-13.7
		c-3.2-10.6-11.7-17.3-22.5-17.9c-12.9-0.7-22.7,5.6-26.8,16.8C95.1,160.2,95.9,161.5,99.1,162.2z"/>
	<path class="st0" d="M427.2,81c-16.5,4-32.9,7.9-49.4,11.8c-15.6,3.6-31.2,7.1-46.7,10.8c-4.2,1-7.7,3.1-8.3,8
		c0.1,24.4,0.1,48.8,0.2,73.2c0.2,0.6,0.3,1.2,0.6,1.7c4.7,8.2,11.9,5.2,18.4,3.7c14.3-3.2,28.6-6.9,42.9-10.2
		c17.1-4,34.1-8.1,51.3-11.8c4-0.9,6.2-2.8,7.8-6.2c0-25.1,0-50.3,0-75.4C440.7,80.7,435.3,79,427.2,81z"/>
	<path class="st0" d="M443.8,86.6c1,1.9,0.5,3.9,0.5,5.9c0,21.2,0,42.5,0,63.7c0,1.9,0.5,4-0.5,5.8c1.4-1.4,1.2-3.3,1.2-5
		c0-21.8,0-43.6,0-65.3C445,89.9,445.2,88.1,443.8,86.6z"/>
	<path class="st0" d="M322.4,171.8c0.1-20.1-0.5-40.1,0.3-60.2c-1,0.9-0.9,2.1-0.9,3.3c0,21.8,0,43.6,0,65.4c0,1.6-0.1,3.2,1.1,4.5
		C321.8,180.5,322.4,176.1,322.4,171.8z"/>
</g>
</svg>
