<svg width="61" height="60" viewBox="0 0 61 60" fill="none" xmlns="http://www.w3.org/2000/svg">
  <path d="M49.25 0H11.75C8.76607 0 5.90502 1.18495 3.79531 3.29531C1.6851 5.40502 0.5 8.2659 0.5 11.25V48.75C0.5 51.7339 1.68495 54.595 3.79531 56.7047C5.90502 58.8149 8.7659 60 11.75 60H49.25C52.2339 60 55.095 58.815 57.2047 56.7047C59.3149 54.595 60.5 51.7341 60.5 48.75V11.25C60.5 8.26607 59.315 5.40502 57.2047 3.29531C55.095 1.1851 52.2341 0 49.25 0ZM11.75 52.5C10.7553 52.5 9.80184 52.105 9.09821 51.402C8.39522 50.6984 8.00023 49.7449 8.00023 48.7502V44.7846L21.1249 31.8751L42.0697 52.5001L11.75 52.5ZM53 48.7503C52.9967 49.8287 52.5285 50.8533 51.7156 51.563L41.3564 41.3255L53 29.6819L53 48.7503ZM53 19.0684L36.0128 36.0556L26.3939 26.5589C24.9899 25.1732 23.0974 24.3963 21.125 24.3963C19.1526 24.3963 17.2602 25.1731 15.8561 26.5589L8.00017 34.312V11.2495C8.00017 10.2548 8.39516 9.30134 9.09815 8.59771C9.80179 7.89472 10.7552 7.49973 11.7499 7.49973H49.2499C50.2446 7.49973 51.1981 7.89472 51.9017 8.59771C52.6047 9.30135 52.9997 10.2548 52.9997 11.2495L53 19.0684Z" fill="#ECECEC"/>
  <path d="M39.8749 16.875C39.8749 18.9461 38.1963 20.6247 36.1253 20.6247C34.0542 20.6247 32.3749 18.9461 32.3749 16.875C32.3749 14.804 34.0542 13.1247 36.1253 13.1247C38.1963 13.1247 39.8749 14.804 39.8749 16.875Z" fill="#ECECEC"/>
</svg>
