<?xml version="1.0" encoding="utf-8"?>
<!-- Generator: Adobe Illustrator 27.0.1, SVG Export Plug-In . SVG Version: 6.00 Build 0)  -->
<svg version="1.1" id="Layer_1" xmlns="http://www.w3.org/2000/svg" xmlns:xlink="http://www.w3.org/1999/xlink" x="0px" y="0px"
	 viewBox="0 0 512 512" style="enable-background:new 0 0 512 512;" xml:space="preserve">
<style type="text/css">
	.st0{fill:#FFFFFF;}
</style>
<path class="st0" d="M245.3,341.3c-17.7,0-32,14.3-32,32v17.1c0,31.8-25.8,57.6-57.6,57.6h0h-34.1C89.8,448,64,422.2,64,390.4l0,0
	V121.6C64,89.8,89.8,64,121.6,64h34.1c31.8,0,57.6,25.8,57.6,57.6v17.1c0,17.7,14.3,32,32,32s32-14.3,32-32v-17.1
	C277.3,54.5,222.9,0.1,155.7,0h-34.1C54.5,0.1,0.1,54.5,0,121.6v268.8C0.1,457.5,54.5,511.9,121.6,512h34.1
	c67.1-0.1,121.5-54.5,121.6-121.6v-17.1C277.3,355.7,263,341.3,245.3,341.3z"/>
<path class="st0" d="M481.3,203.2l-97.8-97.8c-12.5-12.5-32.8-12.5-45.3,0s-12.5,32.8,0,45.3l72.8,72.8L149.3,224
	c-17.7,0-32,14.3-32,32s14.3,32,32,32l0,0l262.8-0.6l-74,74c-12.5,12.5-12.5,32.8,0,45.3c12.5,12.5,32.8,12.5,45.3,0l97.8-97.8
	C510.4,279.6,510.4,232.4,481.3,203.2z"/>
</svg>
