<?xml version="1.0" encoding="utf-8"?>
<!-- Generator: Adobe Illustrator 27.0.1, SVG Export Plug-In . SVG Version: 6.00 Build 0)  -->
<svg version="1.1" id="Bold" xmlns="http://www.w3.org/2000/svg" xmlns:xlink="http://www.w3.org/1999/xlink" x="0px" y="0px"
	 viewBox="0 0 512 512" style="enable-background:new 0 0 512 512;" xml:space="preserve">
<style type="text/css">
	.st0{fill:#FFFFFF;}
</style>
<path class="st0" d="M117.3,448C87.9,448,64,424.1,64,394.7V32C64,14.3,49.7,0,32,0l0,0C14.3,0,0,14.3,0,32v362.7
	C0,459.5,52.5,512,117.3,512H480c17.7,0,32-14.3,32-32l0,0c0-17.7-14.3-32-32-32H117.3z"/>
<path class="st0" d="M416,384c17.7,0,32-14.3,32-32V224c0-17.7-14.3-32-32-32s-32,14.3-32,32v128C384,369.7,398.3,384,416,384z"/>
<path class="st0" d="M160,384c17.7,0,32-14.3,32-32V224c0-17.7-14.3-32-32-32s-32,14.3-32,32v128C128,369.7,142.3,384,160,384z"/>
<path class="st0" d="M288,384c17.7,0,32-14.3,32-32V117.3c0-17.7-14.3-32-32-32c-17.7,0-32,14.3-32,32V352
	C256,369.7,270.3,384,288,384z"/>
</svg>
