<?xml version="1.0" encoding="utf-8"?>
<!-- Generator: Adobe Illustrator 27.0.1, SVG Export Plug-In . SVG Version: 6.00 Build 0)  -->
<svg version="1.1" id="Layer_1" xmlns="http://www.w3.org/2000/svg" xmlns:xlink="http://www.w3.org/1999/xlink" x="0px" y="0px"
	 viewBox="0 0 512 512" style="enable-background:new 0 0 512 512;" xml:space="preserve">
<style type="text/css">
	.st0{fill:#FFFFFF;}
</style>
<path class="st0" d="M262.4,217.1c2.2,5,4.8,9.7,7.7,14.3l231.7-46.1C463.3,49.8,322.1-28.8,186.6,9.7c-3.8,1.1-7.6,2.2-11.3,3.5
	L262.4,217.1z"/>
<path class="st0" d="M269.5,293.2c-20.2-15.5-36.1-35.8-46.3-59.2L136,30C11.1,96-36.7,250.7,29.3,375.7S250.1,548.4,375,482.4
	c26.6-14,50.5-32.7,70.6-55L269.5,293.2z"/>
<path class="st0" d="M306.5,267.7l165.1,125.9C498,352.5,512,304.8,512,256c0-9.6-0.6-19.3-1.7-28.8L306.5,267.7z"/>
</svg>
